<?xml version="1.0" encoding="UTF-8" standalone="no"?><!DOCTYPE svg PUBLIC "-//W3C//DTD SVG 1.1//EN" "http://www.w3.org/Graphics/SVG/1.1/DTD/svg11.dtd"><svg width="187px" height="209px" version="1.1" xmlns="http://www.w3.org/2000/svg" xmlns:xlink="http://www.w3.org/1999/xlink" xml:space="preserve" xmlns:serif="http://www.serif.com/" style="fill-rule:evenodd;clip-rule:evenodd;stroke-linejoin:round;stroke-miterlimit:2;"><g transform="matrix(1,0,0,1,1831,-80)"><g transform="matrix(0.0581241,0,0,0.0581241,-1842.11,79.9777)"><path d="M368.902,2566.1L394.84,2551.13L296.154,2503.41C270.275,2490.9 259.424,2459.73 271.937,2433.85C284.45,2407.97 315.62,2397.12 341.499,2409.63L503.905,2488.16L536.711,2469.22L362.698,2385.08C336.819,2372.57 325.968,2341.4 338.481,2315.52C350.994,2289.64 382.164,2278.79 408.043,2291.3L645.776,2406.25L676.866,2388.3L394.67,2251.85C368.791,2239.34 357.94,2208.17 370.453,2182.29C382.966,2156.41 414.136,2145.56 440.015,2158.07L785.931,2325.33L836.127,2296.35L478.042,2123.21C452.163,2110.69 441.311,2079.52 453.825,2053.64C464.752,2031.05 489.909,2019.91 513.344,2025.78C513.887,2023.88 514.531,2022.03 515.27,2020.24C366.942,1968.89 199.843,1861.59 199.843,1799.97C199.843,1738.36 366.927,1631.07 515.249,1579.72C514.519,1577.94 513.882,1576.11 513.344,1574.22C489.909,1580.09 464.752,1568.95 453.825,1546.36C441.311,1520.48 452.163,1489.31 478.042,1476.79L836.127,1303.65L785.931,1274.67L440.015,1441.93C414.136,1454.44 382.966,1443.59 370.453,1417.71C357.94,1391.83 368.791,1360.66 394.67,1348.15L676.866,1211.7L645.776,1193.75L408.043,1308.7C382.164,1321.21 350.994,1310.36 338.481,1284.48C325.968,1258.6 336.819,1227.43 362.698,1214.92L536.711,1130.78L503.905,1111.84L341.499,1190.37C315.62,1202.88 284.45,1192.03 271.937,1166.15C259.424,1140.27 270.275,1109.1 296.154,1096.59L394.84,1048.87L368.902,1033.9C346.378,1034.71 324.893,1033.04 312.474,1025.87C277.586,1005.73 232.257,923.094 244.482,901.921C256.706,880.748 350.932,878.687 385.82,898.83C398.239,906 410.431,923.77 420.985,943.685L446.923,958.66L438.905,849.337C436.802,820.669 458.37,795.686 487.039,793.583C515.707,791.481 540.69,813.049 542.793,841.717L555.989,1021.63L588.794,1040.57L574.655,847.8C572.553,819.131 594.121,794.149 622.789,792.046C651.458,789.943 676.44,811.512 678.543,840.18L697.859,1103.54L728.949,1121.49L706.02,808.875C703.917,780.206 725.485,755.224 754.154,753.121C782.822,751.018 807.805,772.586 809.907,801.255L838.014,1184.46L888.211,1213.44L859.115,816.754C857.012,788.086 878.58,763.103 907.249,761.001C932.285,759.164 954.51,775.38 961.141,798.613C963.059,798.132 964.984,797.765 966.906,797.508C937.211,643.378 946.588,445.016 999.946,414.21C1053.3,383.405 1229.76,474.456 1348.4,577.232C1349.57,575.71 1350.84,574.241 1352.2,572.833C1335.4,555.475 1332.47,528.119 1346.58,507.355C1362.73,483.579 1395.15,477.392 1418.93,493.547L1747.92,717.086L1747.92,659.124L1430.11,443.182C1406.33,427.027 1400.14,394.607 1416.3,370.831C1432.45,347.055 1464.87,340.867 1488.65,357.023L1747.92,533.187L1747.92,497.287L1529.5,348.88C1505.72,332.724 1499.54,300.305 1515.69,276.529C1531.85,252.752 1564.27,246.565 1588.04,262.72L1747.92,371.35L1747.92,333.469L1598.71,232.085C1574.93,215.93 1568.74,183.51 1584.9,159.734C1601.05,135.958 1633.47,129.77 1657.25,145.926L1747.92,207.531L1747.92,177.58C1735.95,158.483 1726.65,139.039 1726.65,124.7C1726.65,84.414 1775.55,3.842 1800,3.842C1824.45,3.842 1873.35,84.414 1873.35,124.7C1873.35,139.039 1864.05,158.483 1852.08,177.58L1852.08,207.531L1942.75,145.926C1966.53,129.77 1998.95,135.958 2015.1,159.734C2031.26,183.51 2025.07,215.93 2001.29,232.085L1852.08,333.469L1852.08,371.35L2011.96,262.72C2035.73,246.565 2068.15,252.752 2084.31,276.529C2100.46,300.305 2094.28,332.724 2070.5,348.88L1852.08,497.287L1852.08,533.187L2111.35,357.023C2135.13,340.867 2167.55,347.055 2183.7,370.831C2199.86,394.607 2193.67,427.027 2169.89,443.182L1852.08,659.124L1852.08,717.086L2181.07,493.547C2204.85,477.392 2237.27,483.579 2253.42,507.355C2267.53,528.119 2264.6,555.475 2247.8,572.833C2249.17,574.254 2250.45,575.737 2251.64,577.274C2370.27,474.492 2546.74,383.431 2600.1,414.238C2653.46,445.043 2662.84,643.388 2633.15,797.515C2635.05,797.772 2636.96,798.136 2638.86,798.613C2645.49,775.38 2667.72,759.164 2692.75,761.001C2721.42,763.103 2742.99,788.086 2740.89,816.754L2711.79,1213.44L2761.99,1184.46L2790.09,801.255C2792.2,772.586 2817.18,751.018 2845.85,753.121C2874.51,755.224 2896.08,780.206 2893.98,808.875L2871.05,1121.49L2902.14,1103.54L2921.46,840.18C2923.56,811.512 2948.54,789.943 2977.21,792.046C3005.88,794.149 3027.45,819.131 3025.35,847.8L3011.21,1040.57L3044.01,1021.63L3057.21,841.717C3059.31,813.049 3084.29,791.481 3112.96,793.583C3141.63,795.686 3163.2,820.669 3161.1,849.337L3153.08,958.66L3179.01,943.685C3189.57,923.77 3201.76,906 3214.18,898.83C3249.07,878.687 3343.29,880.748 3355.52,901.921C3367.74,923.094 3322.41,1005.73 3287.53,1025.87C3275.11,1033.04 3253.62,1034.71 3231.1,1033.9L3205.16,1048.87L3303.85,1096.59C3329.72,1109.1 3340.58,1140.27 3328.06,1166.15C3315.55,1192.03 3284.38,1202.88 3258.5,1190.37L3096.1,1111.84L3063.29,1130.78L3237.3,1214.92C3263.18,1227.43 3274.03,1258.6 3261.52,1284.48C3249.01,1310.36 3217.84,1321.21 3191.96,1308.7L2954.22,1193.75L2923.13,1211.7L3205.33,1348.15C3231.21,1360.66 3242.06,1391.83 3229.55,1417.71C3217.03,1443.59 3185.86,1454.44 3159.99,1441.93L2814.07,1274.67L2763.87,1303.65L3121.96,1476.79C3147.84,1489.31 3158.69,1520.48 3146.18,1546.36C3135.25,1568.95 3110.09,1580.09 3086.66,1574.22C3086.11,1576.12 3085.47,1577.97 3084.73,1579.77C3233.06,1631.11 3400.16,1738.41 3400.16,1800.03C3400.16,1861.64 3233.07,1968.93 3084.75,2020.28C3085.48,2022.06 3086.12,2023.89 3086.66,2025.78C3110.09,2019.91 3135.25,2031.05 3146.18,2053.64C3158.69,2079.52 3147.84,2110.69 3121.96,2123.21L2763.87,2296.35L2814.07,2325.33L3159.99,2158.07C3185.86,2145.56 3217.03,2156.41 3229.55,2182.29C3242.06,2208.17 3231.21,2239.34 3205.33,2251.85L2923.13,2388.3L2954.22,2406.25L3191.96,2291.3C3217.84,2278.79 3249.01,2289.64 3261.52,2315.52C3274.03,2341.4 3263.18,2372.57 3237.3,2385.08L3063.29,2469.22L3096.1,2488.16L3258.5,2409.63C3284.38,2397.12 3315.55,2407.97 3328.06,2433.85C3340.58,2459.73 3329.72,2490.9 3303.85,2503.41L3205.16,2551.13L3231.1,2566.1C3253.62,2565.29 3275.11,2566.96 3287.53,2574.13C3322.41,2594.27 3367.74,2676.91 3355.52,2698.08C3343.29,2719.25 3249.07,2721.31 3214.18,2701.17C3201.76,2694 3189.57,2676.23 3179.01,2656.32L3153.08,2641.34L3161.1,2750.66C3163.2,2779.33 3141.63,2804.31 3112.96,2806.42C3084.29,2808.52 3059.31,2786.95 3057.21,2758.28L3044.01,2578.37L3011.21,2559.43L3025.35,2752.2C3027.45,2780.87 3005.88,2805.85 2977.21,2807.95C2948.54,2810.06 2923.56,2788.49 2921.46,2759.82L2902.14,2496.46L2871.05,2478.51L2893.98,2791.12C2896.08,2819.79 2874.51,2844.78 2845.85,2846.88C2817.18,2848.98 2792.2,2827.41 2790.09,2798.74L2761.99,2415.54L2711.79,2386.56L2740.89,2783.25C2742.99,2811.91 2721.42,2836.9 2692.75,2839C2667.72,2840.84 2645.49,2824.62 2638.86,2801.39C2636.94,2801.87 2635.02,2802.24 2633.09,2802.49C2662.79,2956.62 2653.41,3154.98 2600.05,3185.79C2546.7,3216.6 2370.24,3125.54 2251.6,3022.77C2250.43,3024.29 2249.16,3025.76 2247.8,3027.17C2264.6,3044.53 2267.53,3071.88 2253.42,3092.64C2237.27,3116.42 2204.85,3122.61 2181.07,3106.45L1852.08,2882.91L1852.08,2940.88L2169.89,3156.82C2193.67,3172.97 2199.86,3205.39 2183.7,3229.17C2167.55,3252.95 2135.13,3259.13 2111.35,3242.98L1852.08,3066.81L1852.08,3102.71L2070.5,3251.12C2094.28,3267.28 2100.46,3299.7 2084.31,3323.47C2068.15,3347.25 2035.73,3353.43 2011.96,3337.28L1852.08,3228.65L1852.08,3266.53L2001.29,3367.91C2025.07,3384.07 2031.26,3416.49 2015.1,3440.27C1998.95,3464.04 1966.53,3470.23 1942.75,3454.07L1852.08,3392.47L1852.08,3422.42C1864.05,3441.52 1873.35,3460.96 1873.35,3475.3C1873.35,3515.59 1824.45,3596.16 1800,3596.16C1775.55,3596.16 1726.65,3515.59 1726.65,3475.3C1726.65,3460.96 1735.95,3441.52 1747.92,3422.42L1747.92,3392.47L1657.25,3454.07C1633.47,3470.23 1601.05,3464.04 1584.9,3440.27C1568.74,3416.49 1574.93,3384.07 1598.71,3367.91L1747.92,3266.53L1747.92,3228.65L1588.04,3337.28C1564.27,3353.43 1531.85,3347.25 1515.69,3323.47C1499.54,3299.7 1505.72,3267.28 1529.5,3251.12L1747.92,3102.71L1747.92,3066.81L1488.65,3242.98C1464.87,3259.13 1432.45,3252.95 1416.3,3229.17C1400.14,3205.39 1406.33,3172.97 1430.11,3156.82L1747.92,2940.88L1747.92,2882.91L1418.93,3106.45C1395.15,3122.61 1362.73,3116.42 1346.58,3092.64C1332.47,3071.88 1335.4,3044.53 1352.2,3027.17C1350.83,3025.75 1349.55,3024.26 1348.36,3022.73C1229.73,3125.51 1053.26,3216.57 999.897,3185.76C946.542,3154.96 937.163,2956.61 966.853,2802.49C964.949,2802.23 963.042,2801.86 961.141,2801.39C954.51,2824.62 932.285,2840.84 907.249,2839C878.58,2836.9 857.012,2811.91 859.115,2783.25L888.211,2386.56L838.014,2415.54L809.907,2798.74C807.805,2827.41 782.822,2848.98 754.154,2846.88C725.485,2844.78 703.917,2819.79 706.02,2791.12L728.949,2478.51L697.859,2496.46L678.543,2759.82C676.44,2788.49 651.458,2810.06 622.789,2807.95C594.121,2805.85 572.553,2780.87 574.655,2752.2L588.794,2559.43L555.989,2578.37L542.793,2758.28C540.69,2786.95 515.707,2808.52 487.039,2806.42C458.37,2804.31 436.802,2779.33 438.905,2750.66L446.923,2641.34L420.985,2656.32C410.431,2676.23 398.239,2694 385.82,2701.17C350.932,2721.31 256.706,2719.25 244.482,2698.08C232.257,2676.91 277.586,2594.27 312.474,2574.13C324.893,2566.96 346.378,2565.29 368.902,2566.1ZM891.749,1619.24C1008.06,1674.78 1111.45,1751.51 1111.45,1799.97C1111.45,1848.44 1008.02,1925.2 891.678,1980.74C1038.97,2027.17 1182.38,1956.95 1330.86,1814.2L1340.48,1800L1330.86,1785.8C1182.4,1643.07 1039.01,1572.86 891.749,1619.24ZM723.054,1474.03L1024.36,1412.32L945.193,1366.62L723.054,1474.03ZM1502.41,923.053C1512.48,1051.55 1497.72,1179.45 1455.75,1203.68C1413.77,1227.92 1295.59,1176.73 1189.32,1103.74C1222.75,1254.51 1355.27,1343.6 1553.13,1400.81L1570.24,1402.04L1577.73,1386.61C1627.1,1186.68 1616.22,1027.39 1502.41,923.053ZM1134.56,1496.08L1069.3,1509.45C1101.35,1516.46 1133.39,1527.28 1165.47,1541.7L1134.56,1496.08ZM979.226,1030.32L997.276,1276.41L1076.44,1322.11L979.226,1030.32ZM1183.02,1312.47L1204.08,1375.67L1259.04,1379.63C1230.52,1359.06 1205.12,1336.72 1183.02,1312.47ZM1069.3,2090.55L1134.56,2103.92L1165.47,2058.3C1133.39,2072.72 1101.35,2083.54 1069.3,2090.55ZM1063.07,3076.35C1080.49,3070.28 1101.27,3062.32 1117.7,3053.88C1208.21,3007.36 1315.26,2929.71 1353.45,2863.57C1391.64,2797.43 1405.36,2665.89 1400.38,2564.25C1399.48,2545.8 1395.99,2523.83 1392.53,2505.7C1375.1,2511.77 1354.33,2519.73 1337.9,2528.17C1247.39,2574.69 1140.33,2652.34 1102.15,2718.48C1063.96,2784.62 1050.24,2916.16 1055.21,3017.8C1056.12,3036.25 1059.61,3058.22 1063.07,3076.35ZM1063.12,523.623C1059.66,541.75 1056.16,563.726 1055.26,582.17C1050.29,683.814 1064.01,815.351 1102.19,881.492C1140.38,947.634 1247.44,1025.28 1337.95,1071.8C1354.37,1080.24 1375.15,1088.2 1392.58,1094.27C1396.04,1076.14 1399.53,1054.17 1400.43,1035.72C1405.41,934.079 1391.69,802.543 1353.5,736.401C1315.31,670.26 1208.26,592.609 1117.75,546.096C1101.32,537.655 1080.54,529.694 1063.12,523.623ZM2530.7,1509.45L2465.44,1496.08L2434.53,1541.7C2466.61,1527.28 2498.65,1516.46 2530.7,1509.45ZM326.183,1799.97C340.154,1812.03 357.438,1826.04 372.96,1836.05C458.499,1891.18 579.273,1945.06 655.646,1945.06C732.02,1945.06 852.794,1891.18 938.333,1836.05C953.855,1826.04 971.139,1812.03 985.11,1799.97C971.139,1787.92 953.855,1773.9 938.333,1763.9C852.794,1708.77 732.02,1654.88 655.646,1654.88C579.273,1654.88 458.499,1708.77 372.96,1763.9C357.438,1773.9 340.154,1787.92 326.183,1799.97ZM2207.47,1094.3C2224.9,1088.23 2245.67,1080.27 2262.1,1071.83C2352.61,1025.31 2459.67,947.662 2497.85,881.52C2536.04,815.379 2549.76,683.842 2544.79,582.199C2543.88,563.754 2540.39,541.779 2536.93,523.651C2519.51,529.722 2498.73,537.683 2482.3,546.124C2391.79,592.637 2284.74,670.288 2246.55,736.429C2208.36,802.571 2194.64,934.107 2199.62,1035.75C2200.52,1054.2 2204.01,1076.17 2207.47,1094.3ZM2614.89,1800.03C2628.86,1812.08 2646.14,1826.1 2661.67,1836.1C2747.21,1891.23 2867.98,1945.12 2944.35,1945.12C3020.73,1945.12 3141.5,1891.23 3227.04,1836.1C3242.56,1826.1 3259.85,1812.08 3273.82,1800.03C3259.85,1787.97 3242.56,1773.96 3227.04,1763.95C3141.5,1708.82 3020.73,1654.94 2944.35,1654.94C2867.98,1654.94 2747.21,1708.82 2661.67,1763.95C2646.14,1773.96 2628.86,1787.97 2614.89,1800.03ZM2876.95,1474.03L2654.81,1366.62L2575.64,1412.32L2876.95,1474.03ZM1730.48,1071.75L1686.28,1021.92C1696.22,1053.18 1702.88,1086.34 1706.42,1121.33L1730.48,1071.75ZM2097.59,2676.95C2087.52,2548.45 2102.28,2420.55 2144.25,2396.32C2186.23,2372.08 2304.41,2423.27 2410.68,2496.26C2377.25,2345.49 2244.73,2256.4 2046.87,2199.19L2029.76,2197.96L2022.27,2213.39C1972.9,2413.32 1983.78,2572.61 2097.59,2676.95ZM2207.42,2505.73C2203.97,2523.86 2200.47,2545.83 2199.57,2564.28C2194.59,2665.92 2208.31,2797.46 2246.5,2863.6C2284.69,2929.74 2391.74,3007.39 2482.25,3053.9C2498.68,3062.35 2519.46,3070.31 2536.88,3076.38C2540.34,3058.25 2543.84,3036.27 2544.74,3017.83C2549.71,2916.19 2535.99,2784.65 2497.8,2718.51C2459.62,2652.37 2352.56,2574.72 2262.05,2528.2C2245.63,2519.76 2224.85,2511.8 2207.42,2505.73ZM1913.73,1021.92L1869.52,1071.75L1893.58,1121.33C1897.12,1086.34 1903.78,1053.18 1913.73,1021.92ZM2056.17,2895.65L1852.08,2665.57L1852.08,2756.98L2056.17,2895.65ZM1293.23,1507.41L1462.27,1756.9C1471.18,1770.05 1474.4,1785.39 1472.5,1800C1474.4,1814.61 1471.18,1829.95 1462.27,1843.1L1293.23,2092.59L1593.81,2070.93C1609.65,2069.79 1624.54,2074.67 1636.25,2083.63C1649.86,2089.29 1661.53,2099.75 1668.46,2114.03L1800,2385.17L1931.54,2114.03C1938.47,2099.75 1950.14,2089.29 1963.75,2083.63C1975.46,2074.67 1990.35,2069.79 2006.19,2070.93L2306.77,2092.59L2137.73,1843.1C2128.82,1829.95 2125.6,1814.61 2127.5,1800C2125.6,1785.39 2128.82,1770.05 2137.73,1756.9L2306.77,1507.41L2006.19,1529.07C1990.35,1530.21 1975.46,1525.33 1963.75,1516.37C1950.14,1510.71 1938.47,1500.25 1931.54,1485.97L1800,1214.83L1668.46,1485.97C1661.53,1500.25 1649.86,1510.71 1636.25,1516.37C1624.54,1525.33 1609.65,1530.21 1593.81,1529.07L1293.23,1507.41ZM2395.92,1375.67L2416.98,1312.47C2394.88,1336.72 2369.49,1359.06 2340.96,1379.63L2395.92,1375.67ZM979.226,2569.68L1076.44,2277.89L997.276,2323.59L979.226,2569.68ZM2620.77,1030.32L2523.56,1322.11L2602.72,1276.41L2620.77,1030.32ZM2410.67,1103.81C2304.41,1176.78 2186.27,1227.94 2144.3,1203.71C2102.32,1179.48 2087.56,1051.53 2097.64,923.002C1983.79,1027.34 1972.89,1186.65 2022.27,1386.61L2029.76,1402.04L2046.87,1400.81C2244.7,1343.61 2377.21,1254.54 2410.67,1103.81ZM1189.33,2496.19C1295.59,2423.22 1413.73,2372.06 1455.7,2396.29C1497.68,2420.53 1512.44,2548.47 1502.36,2677C1616.21,2572.66 1627.11,2413.35 1577.73,2213.39L1570.24,2197.96L1553.13,2199.19C1355.3,2256.39 1222.79,2345.46 1189.33,2496.19ZM1543.83,704.351L1747.92,934.434L1747.92,843.024L1543.83,704.351ZM2708.25,1980.76C2591.94,1925.22 2488.55,1848.49 2488.55,1800.03C2488.55,1751.56 2591.98,1674.8 2708.32,1619.27C2561.03,1572.83 2417.62,1643.05 2269.14,1785.8L2259.52,1800L2269.14,1814.2C2417.6,1956.93 2560.99,2027.14 2708.25,1980.76ZM2876.95,2125.97L2575.64,2187.68L2654.81,2233.38L2876.95,2125.97ZM1204.08,2224.33L1183.02,2287.53C1205.12,2263.28 1230.52,2240.94 1259.04,2220.37L1204.08,2224.33ZM2620.77,2569.68L2602.72,2323.59L2523.56,2277.89L2620.77,2569.68ZM1869.52,2528.25L1913.73,2578.08C1903.78,2546.82 1897.12,2513.66 1893.58,2478.67L1869.52,2528.25ZM2056.17,704.351L1852.08,843.024L1852.08,934.434L2056.17,704.351ZM2465.44,2103.92L2530.7,2090.55C2498.65,2083.54 2466.61,2072.72 2434.53,2058.3L2465.44,2103.92ZM2416.98,2287.53L2395.92,2224.33L2340.96,2220.37C2369.49,2240.94 2394.88,2263.28 2416.98,2287.53ZM1686.28,2578.08L1730.48,2528.25L1706.42,2478.67C1702.88,2513.66 1696.22,2546.82 1686.28,2578.08ZM1543.83,2895.65L1747.92,2756.98L1747.92,2665.57L1543.83,2895.65ZM723.054,2125.97L945.193,2233.38L1024.36,2187.68L723.054,2125.97Z" style="fill:rgb(119,208,213);"/></g></g></svg>