<?xml version="1.0" encoding="UTF-8" standalone="no"?><!DOCTYPE svg PUBLIC "-//W3C//DTD SVG 1.1//EN" "http://www.w3.org/Graphics/SVG/1.1/DTD/svg11.dtd"><svg width="183px" height="209px" version="1.1" xmlns="http://www.w3.org/2000/svg" xmlns:xlink="http://www.w3.org/1999/xlink" xml:space="preserve" xmlns:serif="http://www.serif.com/" style="fill-rule:evenodd;clip-rule:evenodd;stroke-linejoin:round;stroke-miterlimit:2;"><g transform="matrix(1,0,0,1,1296,-575)"><g transform="matrix(0.0623767,0,0,0.0623767,-1316.49,567.121)"><path d="M895.272,2391.48L809.224,2712.62C800.29,2745.96 766.019,2765.74 732.677,2756.81L387.534,2664.33C354.192,2655.39 334.406,2621.12 343.34,2587.78L435.821,2242.64C444.754,2209.3 479.025,2189.51 512.367,2198.44L833.502,2284.49L1230.46,2055.31L917.774,1860.61C906.498,1857.23 896.134,1850.67 888.158,1841.28L749.871,1841.28L634.592,1965.04C618.917,1981.86 592.53,1982.8 575.703,1967.12C558.876,1951.45 557.941,1925.06 573.616,1908.23L582.047,1899.18C529.894,1895.95 488.536,1852.58 488.536,1799.62C488.536,1746.66 529.894,1703.28 582.047,1700.05L573.616,1691C557.941,1674.17 558.876,1647.79 575.703,1632.11C592.53,1616.44 618.917,1617.37 634.592,1634.2L749.871,1757.95L886.478,1757.95C895.317,1747.15 907.257,1739.95 920.176,1736.84L1233.29,1541.88L835.477,1312.2L514.264,1398.27C480.922,1407.2 446.651,1387.42 437.718,1354.08L345.237,1008.93C336.303,975.591 356.089,941.32 389.431,932.386L734.574,839.905C767.916,830.971 802.187,850.758 811.121,884.099L897.19,1205.31L1294.12,1434.48L1306.4,1066.28C1303.69,1054.82 1304.18,1042.57 1308.33,1030.96L1239.18,911.203L1074.37,873.244C1051.96,868.083 1037.96,845.699 1043.12,823.289C1048.28,800.879 1070.66,786.876 1093.08,792.037L1105.13,794.813C1081.85,748.033 1098.74,690.527 1144.6,664.047C1190.46,637.567 1248.71,651.696 1277.58,695.247L1281.2,683.42C1287.94,661.432 1311.26,649.048 1333.25,655.783C1355.24,662.519 1367.62,685.838 1360.88,707.826L1311.35,869.536L1379.66,987.842C1393.43,990.098 1405.63,996.838 1414.79,1006.47L1740,1180.06L1740,720.618L1505.04,485.655C1480.63,461.247 1480.63,421.675 1505.04,397.267L1757.7,144.604C1782.11,120.196 1821.68,120.196 1846.09,144.604L2098.75,397.267C2123.16,421.675 2123.16,461.247 2098.75,485.655L1863.79,720.618L1863.79,1179.04L2188.62,1005.66C2197.19,997.59 2208.05,991.893 2220.17,989.68L2289.31,869.92L2239.78,708.209C2233.05,686.221 2245.43,662.902 2267.42,656.167C2289.4,649.432 2312.72,661.815 2319.46,683.803L2323.08,695.631C2351.95,652.079 2410.2,637.95 2456.06,664.43C2501.93,690.91 2518.82,748.416 2495.53,795.196L2507.59,792.42C2530,787.259 2552.38,801.262 2557.54,823.672C2562.71,846.082 2548.7,868.466 2526.29,873.628L2361.48,911.586L2293.18,1029.89C2298.11,1042.95 2298.38,1056.89 2294.61,1069.63L2306.89,1438.21L2704.73,1208.52L2790.78,887.385C2799.71,854.043 2833.98,834.257 2867.32,843.191L3212.47,935.672C3245.81,944.606 3265.59,978.877 3256.66,1012.22L3164.18,1357.36C3155.25,1390.7 3120.97,1410.49 3087.63,1401.56L2766.5,1315.51L2369.54,1544.69L2682.23,1739.39C2693.5,1742.77 2703.87,1749.33 2711.84,1758.72L2850.13,1758.72L2965.41,1634.97C2981.08,1618.14 3007.47,1617.2 3024.3,1632.88C3041.12,1648.55 3042.06,1674.94 3026.38,1691.77L3017.95,1700.82C3070.11,1704.05 3111.46,1747.42 3111.46,1800.38C3111.46,1853.34 3070.11,1896.72 3017.95,1899.95L3026.38,1909C3042.06,1925.83 3041.12,1952.21 3024.3,1967.89C3007.47,1983.56 2981.08,1982.63 2965.41,1965.8L2850.13,1842.05L2713.52,1842.05C2704.68,1852.85 2692.74,1860.05 2679.82,1863.16L2366.71,2058.12L2764.52,2287.8L3085.74,2201.73C3119.08,2192.8 3153.35,2212.58 3162.28,2245.92L3254.76,2591.07C3263.7,2624.41 3243.91,2658.68 3210.57,2667.61L2865.43,2760.1C2832.08,2769.03 2797.81,2749.24 2788.88,2715.9L2702.81,2394.69L2305.88,2165.52L2293.6,2533.72C2296.31,2545.18 2295.82,2557.43 2291.67,2569.04L2360.82,2688.8L2525.63,2726.76C2548.04,2731.92 2562.04,2754.3 2556.88,2776.71C2551.72,2799.12 2529.34,2813.12 2506.93,2807.96L2494.87,2805.19C2518.15,2851.97 2501.26,2909.47 2455.4,2935.95C2409.53,2962.43 2351.29,2948.3 2322.42,2904.75L2318.8,2916.58C2312.06,2938.57 2288.74,2950.95 2266.75,2944.22C2244.76,2937.48 2232.38,2914.16 2239.12,2892.17L2288.65,2730.46L2220.34,2612.16C2206.57,2609.9 2194.37,2603.16 2185.21,2593.53L1860,2419.94L1860,2879.38L2094.96,3114.35C2119.37,3138.75 2119.37,3178.33 2094.96,3202.73L1842.3,3455.4C1817.89,3479.8 1778.32,3479.8 1753.91,3455.4L1501.25,3202.73C1476.84,3178.33 1476.84,3138.75 1501.25,3114.35L1736.21,2879.38L1736.21,2420.96L1411.38,2594.34C1402.81,2602.41 1391.95,2608.11 1379.83,2610.32L1310.69,2730.08L1360.22,2891.79C1366.95,2913.78 1354.57,2937.1 1332.58,2943.83C1310.6,2950.57 1287.28,2938.18 1280.54,2916.2L1276.92,2904.37C1248.05,2947.92 1189.8,2962.05 1143.94,2935.57C1098.07,2909.09 1081.18,2851.58 1104.46,2804.8L1092.41,2807.58C1070,2812.74 1047.62,2798.74 1042.46,2776.33C1037.29,2753.92 1051.3,2731.53 1073.71,2726.37L1238.52,2688.41L1306.82,2570.11C1301.89,2557.05 1301.62,2543.11 1305.39,2530.37L1293.11,2161.79L895.272,2391.48ZM680.409,2372.88C616.77,2355.83 540.385,2335.36 540.385,2335.36L480.257,2559.76L704.659,2619.89C704.659,2619.89 725.126,2543.51 742.178,2479.87L653.407,2531.12C623.883,2548.17 586.074,2538.04 569.028,2508.51C551.982,2478.99 562.113,2441.18 591.637,2424.13L680.409,2372.88ZM1123.22,1841.28L1353.17,1984.46L1579.44,1853.82C1578.44,1849.68 1577.54,1845.51 1576.77,1841.28L1123.22,1841.28ZM1356,1612.72L1122.76,1757.95L1576.91,1757.95C1577.9,1752.67 1579.08,1747.45 1580.43,1742.3L1356,1612.72ZM744.097,1116.92C727.04,1053.27 706.556,976.822 706.556,976.822L482.154,1036.95L542.282,1261.35C542.282,1261.35 618.73,1240.87 682.384,1223.81L593.563,1172.53C564.066,1155.5 553.945,1117.73 570.975,1088.23C588.005,1058.74 625.779,1048.61 655.275,1065.64L744.097,1116.92ZM1425.86,1234.53L1416.83,1505.33L1643.14,1635.99C1646.24,1633.03 1649.41,1630.16 1652.67,1627.38L1425.86,1234.53ZM1740,1321.75L1497.8,1192.47L1724.87,1585.76C1729.84,1584.02 1734.88,1582.44 1740,1581.04L1740,1321.75ZM1863.79,543.841C1915.28,492.349 1966.17,441.461 1966.17,441.461L1801.9,277.187L1637.62,441.461C1665.99,469.83 1704.12,507.954 1740,543.841L1740,441.461C1740,407.301 1767.74,379.567 1801.9,379.567C1836.06,379.567 1863.79,407.301 1863.79,441.461L1863.79,543.841ZM2102.64,1193.25L1863.79,1320.73L1863.79,1582.12C1867.87,1583.31 1871.89,1584.61 1875.87,1586.02L2102.64,1193.25ZM2184.18,1509.06L2175.04,1234.52L1947.92,1627.89C1951.95,1631.35 1955.86,1634.96 1959.64,1638.7L2184.18,1509.06ZM2919.59,1227.12C2983.23,1244.17 3059.62,1264.64 3059.62,1264.64L3119.74,1040.24C3119.74,1040.24 2895.34,980.108 2895.34,980.108L2857.82,1120.13L2946.59,1068.88C2976.12,1051.83 3013.93,1061.96 3030.97,1091.49C3048.02,1121.01 3037.89,1158.82 3008.36,1175.87L2919.59,1227.12ZM2476.78,1758.72L2246.83,1615.54L2020.56,1746.18C2021.56,1750.32 2022.46,1754.5 2023.23,1758.72L2476.78,1758.72ZM2244,1987.28L2477.24,1842.05L2023.09,1842.05C2022.1,1847.33 2020.92,1852.55 2019.57,1857.7L2244,1987.28ZM2855.9,2483.08L2893.44,2623.18L3117.85,2563.05C3117.85,2563.05 3057.72,2338.65 3057.72,2338.65L2917.62,2376.19L3006.44,2427.47C3035.93,2444.5 3046.05,2482.27 3029.03,2511.77C3011.99,2541.26 2974.22,2551.39 2944.72,2534.36L2855.9,2483.08ZM2174.14,2365.47L2183.17,2094.67L1956.86,1964.01C1953.76,1966.97 1950.59,1969.84 1947.33,1972.62L2174.14,2365.47ZM1860,2278.25L2102.2,2407.53L1875.13,2014.24C1870.16,2015.98 1865.12,2017.56 1860,2018.96L1860,2278.25ZM1736.21,3056.16C1689.65,3102.72 1633.83,3158.54 1633.83,3158.54L1798.1,3322.81C1798.1,3322.81 1962.38,3158.54 1962.38,3158.54C1962.38,3158.54 1906.56,3102.72 1860,3056.16L1860,3158.54C1860,3192.7 1832.26,3220.43 1798.1,3220.43C1763.94,3220.43 1736.21,3192.7 1736.21,3158.54L1736.21,3056.16ZM1497.36,2406.75L1736.21,2279.27L1736.21,2017.88C1732.13,2016.69 1728.11,2015.39 1724.13,2013.98L1497.36,2406.75ZM1415.82,2090.95L1424.96,2365.48L1652.08,1972.11C1648.05,1968.65 1644.14,1965.04 1640.36,1961.3L1415.82,2090.95ZM2424.15,2881.83C2441.96,2871.55 2448.07,2848.74 2437.79,2830.93C2427.51,2813.12 2404.7,2807.01 2386.89,2817.29C2369.08,2827.57 2362.97,2850.38 2373.25,2868.19C2383.54,2886 2406.34,2892.11 2424.15,2881.83ZM1175.19,2881.44C1193,2891.72 1215.8,2885.61 1226.08,2867.81C1236.36,2850 1230.25,2827.19 1212.44,2816.91C1194.64,2806.63 1171.83,2812.74 1161.55,2830.55C1151.27,2848.36 1157.38,2871.16 1175.19,2881.44ZM1800,1656.35C1720.72,1656.35 1656.35,1720.72 1656.35,1800C1656.35,1879.28 1720.72,1943.65 1800,1943.65C1879.28,1943.65 1943.65,1879.28 1943.65,1800C1943.65,1720.72 1879.28,1656.35 1800,1656.35ZM551.036,1799.62C551.036,1820.18 567.731,1836.88 588.294,1836.88C608.858,1836.88 625.553,1820.18 625.553,1799.62C625.553,1779.05 608.858,1762.36 588.294,1762.36C567.731,1762.36 551.036,1779.05 551.036,1799.62ZM1175.85,718.174C1158.04,728.455 1151.93,751.261 1162.21,769.07C1172.49,786.879 1195.3,792.989 1213.11,782.708C1230.92,772.426 1237.03,749.62 1226.75,731.811C1216.46,714.003 1193.66,707.892 1175.85,718.174ZM2424.81,718.557C2407.01,708.275 2384.2,714.386 2373.92,732.194C2363.64,750.003 2369.75,772.809 2387.55,783.091C2405.36,793.373 2428.17,787.262 2438.45,769.453C2448.73,751.645 2442.62,728.839 2424.81,718.557ZM3048.96,1800.38C3048.96,1779.82 3032.27,1763.12 3011.71,1763.12C2991.14,1763.12 2974.45,1779.82 2974.45,1800.38C2974.45,1820.95 2991.14,1837.64 3011.71,1837.64C3032.27,1837.64 3048.96,1820.95 3048.96,1800.38Z" style="fill:rgb(119,208,213);"/></g></g></svg>