<?xml version="1.0" encoding="UTF-8" standalone="no"?><!DOCTYPE svg PUBLIC "-//W3C//DTD SVG 1.1//EN" "http://www.w3.org/Graphics/SVG/1.1/DTD/svg11.dtd"><svg width="182px" height="209px" version="1.1" xmlns="http://www.w3.org/2000/svg" xmlns:xlink="http://www.w3.org/1999/xlink" xml:space="preserve" xmlns:serif="http://www.serif.com/" style="fill-rule:evenodd;clip-rule:evenodd;stroke-linejoin:round;stroke-miterlimit:2;"><g transform="matrix(1,0,0,1,510,-80)"><g transform="matrix(0.0605986,0,0,0.0605986,-527.937,75.5235)"><path d="M647.02,1169.51L421.645,1192.88L308.001,938.594L585.043,909.869L677.493,1116.73C680.127,1117.43 682.712,1118.49 685.184,1119.91L725.624,1141.8L741.262,947.504C743.107,924.581 763.215,907.469 786.138,909.314C809.06,911.159 826.172,931.267 824.327,954.19L805.737,1185.16L859.556,1214.29L874.823,1024.62C876.668,1001.69 896.776,984.581 919.698,986.426C942.621,988.271 959.733,1008.38 957.888,1031.3L939.669,1257.65L988.79,1284.23L1003.7,1099.02C1005.54,1076.1 1025.65,1058.99 1048.57,1060.83C1071.5,1062.68 1088.61,1082.78 1086.76,1105.71L1068.9,1327.59L1111,1350.37L1175.58,883.635C1134.69,856.563 1121.42,801.909 1146.27,758.874C1150.88,750.896 1156.48,743.853 1162.84,737.812L1161.87,736.039C1131.42,746.717 1096.66,744.561 1066.54,727.174C1011.73,695.529 992.925,625.338 1024.57,570.527C1056.21,515.716 1126.41,496.908 1181.22,528.553C1236.03,560.198 1254.84,630.389 1223.19,685.2C1217.03,695.864 1209.42,705.165 1200.74,712.997L1202.29,715.514C1225.64,709.036 1251.47,711.565 1274.09,724.625C1302.91,741.262 1319.53,770.957 1320.8,801.939L1755.11,978.493L1756.43,930.647L1555.34,835.171C1534.57,825.308 1525.71,800.434 1535.58,779.66C1545.44,758.887 1570.31,750.029 1591.09,759.892L1758.94,839.588L1760.47,783.756L1555.34,686.36C1534.57,676.497 1525.71,651.623 1535.58,630.849C1545.44,610.075 1570.31,601.218 1591.09,611.081L1762.98,692.696L1764.66,631.523L1555.34,532.137C1534.57,522.274 1525.71,497.401 1535.58,476.627C1545.44,455.853 1570.31,446.995 1591.09,456.858L1767.17,540.463L1768.44,494.498C1768.44,491.644 1768.82,488.878 1769.53,486.247L1636.6,302.751L1800,77.188L1963.4,302.751L1830.47,486.247C1831.18,488.878 1831.56,491.644 1831.56,494.498L1832.83,540.463L2008.91,456.858C2029.69,446.995 2054.56,455.853 2064.43,476.627C2074.29,497.401 2065.43,522.274 2044.66,532.137L1835.34,631.523L1837.02,692.696L2008.91,611.081C2029.69,601.218 2054.56,610.075 2064.43,630.849C2074.29,651.623 2065.43,676.497 2044.66,686.36L1839.53,783.756L1841.06,839.588L2008.91,759.892C2029.69,750.029 2054.56,758.887 2064.43,779.66C2074.29,800.434 2065.43,825.308 2044.66,835.171L1843.57,930.647L1844.89,978.493L2281.39,801.053C2284.39,752.111 2325.09,713.291 2374.78,713.291C2383.99,713.291 2392.89,714.625 2401.3,717.11L2402.35,715.386C2377.88,694.348 2362.37,663.169 2362.37,628.395C2362.37,565.105 2413.75,513.721 2477.04,513.721C2540.33,513.721 2591.71,565.105 2591.71,628.395C2591.71,691.685 2540.33,743.069 2477.04,743.069C2464.73,743.069 2452.86,741.124 2441.74,737.525L2440.34,740.123C2457.62,757.105 2468.35,780.74 2468.35,806.86C2468.35,840.135 2450.94,869.376 2424.74,885.967L2489,1350.37L2531.1,1327.59L2513.24,1105.71C2511.39,1082.78 2528.51,1062.68 2551.43,1060.83C2574.35,1058.99 2594.46,1076.1 2596.3,1099.02L2611.21,1284.23L2660.33,1257.65L2642.11,1031.3C2640.27,1008.38 2657.38,988.271 2680.3,986.426C2703.22,984.581 2723.33,1001.69 2725.18,1024.62L2740.44,1214.29L2794.26,1185.16L2775.67,954.19C2773.83,931.267 2790.94,911.159 2813.86,909.314C2836.78,907.469 2856.89,924.581 2858.74,947.504L2874.38,1141.8L2914.82,1119.91C2917.29,1118.49 2919.87,1117.43 2922.51,1116.73L3014.96,909.869L3292,938.594L3178.36,1192.88L2952.98,1169.51C2951.06,1171.44 2948.85,1173.16 2946.38,1174.58L2907.2,1198.66L3067.65,1309.36C3086.58,1322.41 3091.35,1348.38 3078.29,1367.31C3065.23,1386.24 3039.26,1391.01 3020.33,1377.95L2829.6,1246.36L2777.46,1278.41L2934.09,1386.47C2953.02,1399.53 2957.79,1425.5 2944.73,1444.42C2931.67,1463.35 2905.7,1468.12 2886.77,1455.06L2699.86,1326.11L2652.27,1355.36L2805.22,1460.87C2824.15,1473.93 2828.91,1499.9 2815.85,1518.83C2802.79,1537.76 2776.82,1542.52 2757.89,1529.47L2574.67,1403.06L2533.89,1428.12L2905.81,1717.42C2949.69,1695.55 3003.66,1711.38 3028.51,1754.42C3033.11,1762.39 3036.41,1770.77 3038.46,1779.3L3040.48,1779.35C3046.46,1747.63 3065.71,1718.61 3095.82,1701.22C3150.63,1669.58 3220.83,1688.38 3252.47,1743.19C3284.12,1798.01 3265.31,1868.2 3210.5,1899.84C3155.69,1931.49 3085.49,1912.68 3053.85,1857.87C3047.69,1847.2 3043.45,1835.96 3041,1824.53L3038.05,1824.61C3031.98,1848.07 3016.88,1869.17 2994.26,1882.24C2965.44,1898.87 2931.41,1898.42 2903.95,1884.03L2533.89,2171.88L2574.67,2196.95L2757.89,2070.53C2776.82,2057.48 2802.79,2062.24 2815.85,2081.17C2828.91,2100.1 2824.15,2126.07 2805.22,2139.13L2652.27,2244.64L2699.86,2273.89L2886.77,2144.94C2905.7,2131.88 2931.67,2136.65 2944.73,2155.58C2957.79,2174.51 2953.02,2200.47 2934.09,2213.53L2777.46,2321.59L2829.6,2353.64L3020.33,2222.05C3039.26,2208.99 3065.23,2213.76 3078.29,2232.69C3091.35,2251.62 3086.58,2277.59 3067.65,2290.64L2907.2,2401.34L2946.38,2425.42C2948.85,2426.84 2951.06,2428.55 2952.98,2430.49L3178.36,2407.12L3292,2661.41L3014.96,2690.13L2922.51,2483.27C2919.87,2482.57 2917.29,2481.51 2914.82,2480.09L2874.38,2458.2L2858.74,2652.5C2856.89,2675.42 2836.78,2692.53 2813.86,2690.69C2790.94,2688.84 2773.83,2668.73 2775.67,2645.81L2794.26,2414.84L2740.44,2385.71L2725.18,2575.39C2723.33,2598.31 2703.22,2615.42 2680.3,2613.57C2657.38,2611.73 2640.27,2591.62 2642.11,2568.7L2660.33,2342.35L2611.21,2315.77L2596.3,2500.98C2594.46,2523.9 2574.35,2541.01 2551.43,2539.17C2528.51,2537.32 2511.39,2517.22 2513.24,2494.29L2531.1,2272.41L2489,2249.63L2424.42,2716.37C2465.3,2743.44 2478.58,2798.09 2453.73,2841.13C2449.12,2849.1 2443.52,2856.15 2437.16,2862.19L2438.13,2863.96C2468.58,2853.28 2503.34,2855.44 2533.46,2872.83C2588.27,2904.47 2607.08,2974.66 2575.43,3029.47C2543.78,3084.28 2473.59,3103.09 2418.78,3071.45C2363.97,3039.8 2345.16,2969.61 2376.81,2914.8C2382.97,2904.14 2390.58,2894.84 2399.26,2887L2397.71,2884.49C2374.36,2890.96 2348.53,2888.43 2325.91,2875.38C2297.09,2858.74 2280.47,2829.04 2279.2,2798.06L1844.89,2621.51L1843.57,2669.35L2044.66,2764.83C2065.43,2774.69 2074.29,2799.57 2064.43,2820.34C2054.56,2841.11 2029.69,2849.97 2008.91,2840.11L1841.06,2760.41L1839.53,2816.24L2044.66,2913.64C2065.43,2923.5 2074.29,2948.38 2064.43,2969.15C2054.56,2989.93 2029.69,2998.78 2008.91,2988.92L1837.02,2907.3L1835.34,2968.48L2044.66,3067.86C2065.43,3077.73 2074.29,3102.6 2064.43,3123.37C2054.56,3144.15 2029.69,3153.01 2008.91,3143.14L1832.83,3059.54L1831.56,3105.5C1831.56,3108.36 1831.18,3111.12 1830.47,3113.75L1963.4,3297.25L1800,3522.81L1636.6,3297.25L1769.53,3113.75C1768.82,3111.12 1768.44,3108.36 1768.44,3105.5L1767.17,3059.54L1591.09,3143.14C1570.31,3153.01 1545.44,3144.15 1535.58,3123.37C1525.71,3102.6 1534.57,3077.73 1555.34,3067.86L1764.66,2968.48L1762.98,2907.3L1591.09,2988.92C1570.31,2998.78 1545.44,2989.93 1535.58,2969.15C1525.71,2948.38 1534.57,2923.5 1555.34,2913.64L1760.47,2816.24L1758.94,2760.41L1591.09,2840.11C1570.31,2849.97 1545.44,2841.11 1535.58,2820.34C1525.71,2799.57 1534.57,2774.69 1555.34,2764.83L1756.43,2669.35L1755.11,2621.51L1318.62,2798.95C1315.61,2847.89 1274.91,2886.71 1225.22,2886.71C1216.01,2886.71 1207.11,2885.38 1198.7,2882.89L1197.65,2884.61C1222.12,2905.65 1237.63,2936.83 1237.63,2971.61C1237.63,3034.89 1186.25,3086.28 1122.96,3086.28C1059.67,3086.28 1008.29,3034.89 1008.29,2971.61C1008.29,2908.32 1059.67,2856.93 1122.96,2856.93C1135.27,2856.93 1147.14,2858.88 1158.26,2862.47L1159.66,2859.88C1142.38,2842.89 1131.65,2819.26 1131.65,2793.14C1131.65,2759.87 1149.06,2730.62 1175.26,2714.03L1111,2249.63L1068.9,2272.41L1086.76,2494.29C1088.61,2517.22 1071.5,2537.32 1048.57,2539.17C1025.65,2541.01 1005.54,2523.9 1003.7,2500.98L988.79,2315.77L939.669,2342.35L957.888,2568.7C959.733,2591.62 942.621,2611.73 919.698,2613.57C896.776,2615.42 876.668,2598.31 874.823,2575.39L859.556,2385.71L805.737,2414.84L824.327,2645.81C826.172,2668.73 809.06,2688.84 786.138,2690.69C763.215,2692.53 743.107,2675.42 741.262,2652.5L725.624,2458.2L685.184,2480.09C682.712,2481.51 680.127,2482.57 677.493,2483.27L585.043,2690.13L308.001,2661.41L421.645,2407.12L647.02,2430.49C648.943,2428.55 651.148,2426.84 653.62,2425.42L692.795,2401.34L532.348,2290.64C513.419,2277.59 508.654,2251.62 521.712,2232.69C534.771,2213.76 560.742,2208.99 579.67,2222.05L770.401,2353.64L822.537,2321.59L665.909,2213.53C646.98,2200.47 642.214,2174.51 655.273,2155.58C668.332,2136.65 694.302,2131.88 713.231,2144.94L900.144,2273.89L947.727,2244.64L794.783,2139.13C775.854,2126.07 771.088,2100.1 784.147,2081.17C797.206,2062.24 823.176,2057.48 842.105,2070.53L1025.33,2196.95L1066.11,2171.88L694.194,1882.58C650.307,1904.45 596.34,1888.62 571.494,1845.58C566.888,1837.61 563.592,1829.23 561.539,1820.7L559.52,1820.65C553.538,1852.37 534.292,1881.39 504.177,1898.78C449.366,1930.42 379.175,1911.62 347.53,1856.81C315.885,1801.99 334.693,1731.8 389.503,1700.16C444.314,1668.51 514.506,1687.32 546.151,1742.13C552.307,1752.8 556.554,1764.04 558.998,1775.47L561.952,1775.39C568.016,1751.93 583.121,1730.83 605.742,1717.77C634.559,1701.13 668.586,1701.58 696.052,1715.97L1066.11,1428.12L1025.33,1403.06L842.105,1529.47C823.176,1542.52 797.206,1537.76 784.147,1518.83C771.088,1499.9 775.854,1473.93 794.783,1460.87L947.727,1355.36L900.144,1326.11L713.231,1455.06C694.302,1468.12 668.332,1463.35 655.273,1444.42C642.214,1425.5 646.98,1399.53 665.909,1386.47L822.537,1278.41L770.401,1246.36L579.67,1377.95C560.742,1391.01 534.771,1386.24 521.712,1367.31C508.654,1348.38 513.419,1322.41 532.348,1309.36L692.795,1198.66L653.62,1174.58C651.148,1173.16 648.943,1171.44 647.02,1169.51ZM1751.44,1111.93L1344.17,946.372L1391.03,1022.62C1398.6,1022.14 1406.39,1023.72 1413.55,1027.61L1748.74,1210.12L1751.44,1111.93ZM1067.01,1832.78L1343.19,2001.58L1424.85,1951.38L1294.17,1844.18C1288.72,1843.14 1283.46,1841.02 1278.75,1837.84L1067.01,1832.78ZM2433.28,2942.36C2432.45,2943.54 2431.67,2944.78 2430.94,2946.05C2416.54,2970.99 2425.1,3002.92 2450.03,3017.32C2474.97,3031.72 2506.91,3023.16 2521.3,2998.22C2535.7,2973.29 2527.14,2941.35 2502.21,2926.95C2491.76,2920.92 2480.08,2918.92 2468.97,2920.46L2482.75,2945.7C2488.34,2955.35 2485.05,2967.72 2475.4,2973.31C2465.76,2978.91 2453.38,2975.62 2447.79,2965.97L2433.28,2942.36ZM1127.33,2919.61C1125.89,2919.49 1124.43,2919.43 1122.96,2919.43C1094.16,2919.43 1070.79,2942.81 1070.79,2971.61C1070.79,3000.4 1094.16,3023.78 1122.96,3023.78C1151.76,3023.78 1175.13,3000.4 1175.13,2971.61C1175.13,2959.54 1171.03,2948.42 1164.14,2939.58L1149.17,2964.13C1143.61,2973.8 1131.25,2977.13 1121.58,2971.57C1111.91,2966.01 1108.58,2953.65 1114.14,2943.98L1127.33,2919.61ZM2420.16,2101.98L2767.18,1832.05L2677.72,1834.51C2674.35,1841.31 2669.08,1847.27 2662.13,1851.52L2336.49,2050.55L2420.16,2101.98ZM3105.95,1822.74C3106.56,1824.05 3107.24,1825.34 3107.98,1826.62C3122.37,1851.56 3154.31,1860.11 3179.25,1845.72C3204.18,1831.32 3212.74,1799.38 3198.34,1774.44C3183.95,1749.51 3152.01,1740.95 3127.07,1755.35C3116.62,1761.38 3109.05,1770.5 3104.84,1780.88L3133.58,1781.57C3144.73,1781.55 3153.8,1790.59 3153.82,1801.74C3153.84,1812.89 3144.8,1821.96 3133.65,1821.98L3105.95,1822.74ZM2773.63,1772.97L2420.16,1498.02L2336.49,1549.45L2662.13,1748.48C2670.82,1753.79 2676.87,1761.78 2679.88,1770.73L2773.63,1772.97ZM2371.6,1413.91L2311.35,978.422L2268.74,1057.13C2272.95,1063.45 2275.48,1070.99 2275.68,1079.13L2285.22,1460.66L2371.6,1413.91ZM1800,183.726L1713.78,302.751L1800,421.776L1886.22,302.751L1800,183.726ZM1179.84,1498.02L832.82,1767.95L922.284,1765.49C925.653,1758.69 930.918,1752.73 937.866,1748.48L1263.52,1549.45L1179.84,1498.02ZM1336.59,2656.71L1751.44,2488.07L1748.74,2389.88L1413.55,2572.39C1404.61,2577.25 1394.67,2578.5 1385.41,2576.64L1336.59,2656.71ZM2472.67,680.388C2474.11,680.508 2475.57,680.569 2477.04,680.569C2505.84,680.569 2529.21,657.191 2529.21,628.395C2529.21,599.6 2505.84,576.221 2477.04,576.221C2448.24,576.221 2424.87,599.6 2424.87,628.395C2424.87,640.463 2428.97,651.579 2435.86,660.422L2450.83,635.872C2456.39,626.204 2468.75,622.868 2478.42,628.427C2488.09,633.985 2491.42,646.348 2485.86,656.016L2472.67,680.388ZM1166.72,657.644C1167.55,656.456 1168.33,655.225 1169.06,653.95C1183.46,629.013 1174.9,597.077 1149.97,582.68C1125.03,568.282 1093.1,576.839 1078.7,601.777C1064.3,626.714 1072.86,658.65 1097.79,673.047C1108.25,679.081 1119.92,681.083 1131.03,679.538L1117.25,654.301C1111.66,644.653 1114.95,632.279 1124.6,626.686C1134.25,621.092 1146.62,624.384 1152.21,634.032L1166.72,657.644ZM494.052,1777.26C493.436,1775.95 492.76,1774.66 492.024,1773.38C477.626,1748.44 445.691,1739.89 420.753,1754.29C395.816,1768.68 387.259,1800.62 401.657,1825.56C416.054,1850.49 447.99,1859.05 472.927,1844.65C483.378,1838.62 490.952,1829.5 495.165,1819.12L466.421,1818.43C455.269,1818.45 446.198,1809.41 446.178,1798.26C446.158,1787.11 455.196,1778.04 466.349,1778.02L494.052,1777.26ZM2310.22,2629.68L2371.6,2186.09L2285.22,2139.34L2275.68,2520.87C2275.43,2531.05 2271.54,2540.28 2265.29,2547.37L2310.22,2629.68ZM2256.81,2001.58L2523.22,1838.75L2305.15,1844.74L2175.15,1951.38L2256.81,2001.58ZM1343.19,1598.42L1076.78,1761.25L1294.85,1755.26L1424.85,1648.62L1343.19,1598.42ZM1289.78,970.324L1228.4,1413.91L1314.78,1460.66L1324.32,1079.13C1324.57,1068.95 1328.46,1059.72 1334.71,1052.63L1289.78,970.324ZM2228.3,1800L2100.03,1694.79L1988.52,1763.33C1985.35,1765.16 1982.09,1766.68 1978.77,1767.9C1980.63,1778.32 1981.6,1789.05 1981.6,1800C1981.6,1810.95 1980.63,1821.68 1978.77,1832.1C1982.09,1833.32 1985.35,1834.84 1988.52,1836.67L2100.03,1905.21L2228.3,1800ZM826.367,1827.03L1179.84,2101.98L1263.52,2050.55L937.866,1851.52C929.183,1846.21 923.13,1838.22 920.118,1829.27L826.367,1827.03ZM1848.56,2488.07L2255.83,2653.63L2208.97,2577.38C2201.4,2577.86 2193.61,2576.28 2186.45,2572.39L1851.26,2389.88L1848.56,2488.07ZM1228.4,2186.09L1288.65,2621.58L1331.26,2542.87C1327.05,2536.55 1324.52,2529.01 1324.32,2520.87L1314.78,2139.34L1228.4,2186.09ZM2263.41,943.294L1848.56,1111.93L1851.26,1210.12L2186.45,1027.61C2195.39,1022.75 2205.33,1021.5 2214.59,1023.37L2263.41,943.294ZM2532.99,1767.22L2256.81,1598.42L2175.15,1648.62L2305.83,1755.82C2311.28,1756.86 2316.54,1758.99 2321.25,1762.16L2532.99,1767.22ZM2138.11,1148.82L1853.84,1303.6L1856.47,1399.42L2014.65,1339.85C2018.28,1335.65 2022.75,1332.16 2027.86,1329.66L2138.11,1148.82ZM1397.02,2094.82L1404.83,2406.95L1508.68,2215.1L1481.33,2049.2L1397.02,2094.82ZM3199.74,2608.14L3139.77,2473.95L2993.58,2489.11L3053.55,2623.3L3199.74,2608.14ZM1746.16,1303.6L1471.95,1154.3L1586.17,1340.16L1743.53,1399.42L1746.16,1303.6ZM1800,1743.4C1768.76,1743.4 1743.4,1768.76 1743.4,1800C1743.4,1831.24 1768.76,1856.6 1800,1856.6C1831.24,1856.6 1856.6,1831.24 1856.6,1800C1856.6,1768.76 1831.24,1743.4 1800,1743.4ZM400.265,991.863L460.233,1126.05L606.423,1110.89L546.455,976.705L400.265,991.863ZM1461.89,2451.18L1746.16,2296.4L1743.53,2200.58L1585.35,2260.15C1581.72,2264.35 1577.25,2267.84 1572.14,2270.34L1461.89,2451.18ZM1585.85,2170.91L1741.1,2112.44L1737.5,1981.6C1737.5,1977.94 1737.82,1974.36 1738.42,1970.87C1717.94,1963.48 1699.17,1952.52 1682.86,1938.73C1680.13,1941.01 1677.17,1943.09 1673.98,1944.93L1558.87,2007.23L1585.85,2170.91ZM400.265,2608.14L546.455,2623.3C546.455,2623.3 606.423,2489.11 606.423,2489.11L460.233,2473.95L400.265,2608.14ZM2202.98,1505.18L2195.17,1193.05L2091.32,1384.9L2118.67,1550.81L2202.98,1505.18ZM3199.74,991.863L3053.55,976.705L2993.58,1110.89L3139.77,1126.05L3199.74,991.863ZM2194.88,2418.4L2202.98,2094.82L2118.67,2049.2L2091.18,2215.97C2093,2221.21 2093.79,2226.83 2093.4,2232.5L2194.88,2418.4ZM1853.84,2296.4L2128.05,2445.7L2013.83,2259.84L1856.47,2200.58L1853.84,2296.4ZM1405.12,1181.6L1397.02,1505.18L1481.33,1550.81L1508.82,1384.03C1507,1378.79 1506.21,1373.17 1506.6,1367.5L1405.12,1181.6ZM2014.15,1429.09L1858.9,1487.56L1862.5,1618.4C1862.5,1622.06 1862.18,1625.64 1861.58,1629.13C1882.06,1636.52 1900.83,1647.48 1917.14,1661.27C1919.87,1658.99 1922.83,1656.91 1926.02,1655.07L2041.13,1592.77L2014.15,1429.09ZM1371.7,1800L1499.97,1905.21L1611.48,1836.67C1614.65,1834.84 1617.91,1833.32 1621.24,1832.1C1619.37,1821.68 1618.4,1810.95 1618.4,1800C1618.4,1789.05 1619.37,1778.32 1621.24,1767.9C1617.91,1766.68 1614.65,1765.16 1611.48,1763.33L1499.97,1694.79L1371.7,1800ZM2014.15,2170.91L2041.13,2007.23L1926.02,1944.93C1922.83,1943.09 1919.87,1941.01 1917.14,1938.73C1900.83,1952.52 1882.06,1963.48 1861.58,1970.87C1862.18,1974.36 1862.5,1977.94 1862.5,1981.6L1858.9,2112.44L2014.15,2170.91ZM1800,3416.27L1886.22,3297.25L1800,3178.22C1800,3178.22 1713.78,3297.25 1713.78,3297.25L1800,3416.27ZM1585.85,1429.09L1558.87,1592.77L1673.98,1655.07C1677.17,1656.91 1680.13,1658.99 1682.86,1661.27C1699.17,1647.48 1717.94,1636.52 1738.42,1629.13C1737.82,1625.64 1737.5,1622.06 1737.5,1618.4L1741.1,1487.56L1585.85,1429.09Z" style="fill:rgb(119,208,213);"/></g></g></svg>